<?xml version="1.0" encoding="UTF-8" standalone="no"?>
<svg width="182px" height="139px" viewBox="0 0 182 139" version="1.1" xmlns="http://www.w3.org/2000/svg" xmlns:xlink="http://www.w3.org/1999/xlink">
    <!-- Generator: sketchtool 40.2 (33826) - http://www.bohemiancoding.com/sketch -->
    <title>E0BDF341-22C2-45E2-977D-A3290ECD2D8A</title>
    <desc>Created with sketchtool.</desc>
    <defs></defs>
    <g id="Cart" stroke="none" stroke-width="1" fill="none" fill-rule="evenodd" opacity="0.514808769">
        <g id="3.2-Cart---Empty-Cart" transform="translate(-1190.000000, -157.000000)">
            <g id="Group" transform="translate(1121.000000, 37.000000)">
                <g id="icn_EmptyCart" transform="translate(71.000000, 122.000000)">
                    <path d="M159.318191,136.102041 L18.6818087,136.102041 C16.1068139,136.102041 14,133.604082 14,130.55102 L14,130.55102 C14,127.497959 16.1068139,125 18.6818087,125 L159.318191,125 C161.893186,125 164,127.497959 164,130.55102 L164,130.55102 C164,133.604082 161.893186,136.102041 159.318191,136.102041" id="Fill-1" fill="#EFEFEF"></path>
                    <g id="Group-24">
                        <g id="Group-6" transform="translate(0.000000, 91.872718)">
                            <path d="M18.6560081,12.6610449 C18.6560081,26.2099755 29.6265751,37.1921143 43.1612293,37.1921143 L135.0547,37.1921143 C148.58769,37.1921143 159.559366,26.2099755 159.559366,12.6610449 L165.685672,12.6610449 C172.452444,12.6610449 177.938282,7.16942041 177.938282,0.395510204 L0.277092212,0.395510204 C0.277092212,7.16942041 5.76348474,12.6610449 12.5297028,12.6610449 L147.30731,12.6610449" id="Fill-3" fill="#FEF1DD"></path>
                            <path d="M18.6560081,12.6610449 C18.6560081,26.2099755 29.6265751,37.1921143 43.1612293,37.1921143 L135.0547,37.1921143 C148.58769,37.1921143 159.559366,26.2099755 159.559366,12.6610449 L165.685672,12.6610449 C172.452444,12.6610449 177.938282,7.16942041 177.938282,0.395510204 L0.277092212,0.395510204 C0.277092212,7.16942041 5.76348474,12.6610449 12.5297028,12.6610449 L147.30731,12.6610449" id="Stroke-5" stroke="#FAB03C" stroke-width="3" stroke-linecap="round" stroke-linejoin="round"></path>
                        </g>
                        <path d="M61.5397016,49.3394122 C61.5397016,49.3394122 67.6660069,46.2730286 67.6660069,40.1402612 C67.6660069,34.0074939 61.5397016,34.0074939 61.5397016,27.8747265 C61.5397016,21.7425143 67.6660069,18.6761306 67.6660069,18.6761306" id="Stroke-7" stroke="#FAB03C" stroke-width="3" stroke-linecap="round" stroke-linejoin="round"></path>
                        <path d="M110.549589,49.3394122 C110.549589,49.3394122 116.675895,46.2730286 116.675895,40.1402612 C116.675895,34.0074939 110.549589,34.0074939 110.549589,27.8747265 C110.549589,21.7425143 116.675895,18.6761306 116.675895,18.6761306" id="Stroke-9" stroke="#FAB03C" stroke-width="3" stroke-linecap="round" stroke-linejoin="round"></path>
                        <path d="M86.0446455,0.277828571 C86.0446455,0.277828571 92.1709508,3.34421224 92.1709508,9.47697959 C92.1709508,15.6097469 86.0446455,15.6097469 86.0446455,21.7425143 C86.0446455,27.8747265 92.1709508,27.8747265 92.1709508,34.0074939 C92.1709508,40.1402612 86.0446455,43.2066449 86.0446455,43.2066449" id="Stroke-11" stroke="#FAB03C" stroke-width="3" stroke-linecap="round" stroke-linejoin="round"></path>
                        <path d="M0.277258567,61.6048359 L43.1608411,80.003138" id="Stroke-13" stroke="#FAB03C" stroke-width="3" stroke-linecap="round" stroke-linejoin="round"></path>
                        <path d="M157.208269,79.9909812 C155.526973,78.1164016 153.085989,76.9368098 150.369964,76.9368098 C148.724712,76.9368098 147.202007,77.4053159 145.865067,78.1641404 C144.237559,75.5906873 141.384014,73.8704261 138.117908,73.8704261 C136.90906,73.8704261 135.757328,74.1191118 134.701528,74.5437649 C133.642955,70.6314057 130.106799,67.7376588 125.865297,67.7376588 C121.907708,67.7376588 118.563416,70.2561567 117.270836,73.7682873 C115.592867,71.9569894 113.211771,70.8040424 110.549534,70.8040424 C109.448817,70.8040424 108.407989,71.029969 107.426493,71.3852343 C107.441465,71.1903935 107.486381,71.002769 107.486381,70.8040424 C107.486381,65.7237486 103.370755,61.6048914 98.2969234,61.6048914 C94.3393346,61.6048914 90.9950417,64.1233894 89.7030168,67.63552 C88.0233844,65.824222 85.6450604,64.6712751 82.9817146,64.6712751 C79.7810417,64.6712751 76.9690854,66.3121567 75.323833,68.7973486 C73.6785807,66.3121567 70.8666243,64.6712751 67.6659514,64.6712751 C62.8050542,64.6712751 58.8668735,68.4604016 58.5391539,73.244271 C56.9044374,71.74272 54.7434841,70.8040424 52.3501882,70.8040424 C50.7049358,70.8040424 49.1822318,71.2725486 47.8469545,72.0302629 C46.2166741,69.45792 43.3659016,67.7376588 40.0975776,67.7376588" id="Stroke-15" stroke="#FAB03C" stroke-width="3" stroke-linecap="round" stroke-linejoin="round"></path>
                    </g>
                </g>
            </g>
        </g>
    </g>
</svg>